<svg xmlns="http://www.w3.org/2000/svg" width="1024" height="266" viewBox="0 0 1024 266">
<g>
<path d="M 266.00,113.80 L 266.00,119.58 L 266.00,122.43 L 266.00,127.91 L 266.00,130.61 L 265.99,135.79 L 265.99,138.34 L 265.99,143.23 L 265.99,145.64 L 265.98,150.25 L 265.98,152.52 L 265.97,156.86 L 265.97,161.14 L 265.95,168.91 L 265.94,172.67 L 265.91,179.47 L 265.90,182.76 L 265.87,188.66 L 265.85,191.50 L 265.81,196.57 L 265.78,199.00 L 265.73,203.31 L 265.71,205.37 L 265.64,208.97 L 265.61,210.70 L 265.54,213.68 L 265.50,215.10 L 265.41,217.52 L 265.37,218.67 L 265.27,220.61 L 265.22,221.52 L 265.10,223.04 L 265.05,223.76 L 264.92,224.93 L 264.47,227.46 L 263.89,229.68 L 262.28,233.96 L 261.40,236.07 L 259.23,240.09 L 258.08,242.06 L 255.41,245.76 L 254.02,247.57 L 250.89,250.89 L 249.28,252.51 L 245.76,255.41 L 243.96,256.81 L 240.09,259.23 L 238.12,260.38 L 233.96,262.28 L 227.46,264.47 L 227.19,264.54 L 226.19,264.67 L 225.61,264.74 L 224.01,264.86 L 223.15,264.92 L 221.00,265.04 L 219.86,265.09 L 217.21,265.20 L 215.82,265.25 L 212.69,265.35 L 211.08,265.39 L 207.52,265.48 L 205.69,265.53 L 201.75,265.61 L 199.73,265.64 L 195.43,265.71 L 193.24,265.75 L 188.64,265.81 L 186.30,265.84 L 181.42,265.89 L 176.49,265.94 L 165.98,266.02 L 160.64,266.05 L 149.57,266.09 L 144.00,266.11 L 132.69,266.12 L 127.04,266.11 L 115.81,266.09 L 110.24,266.07 L 99.41,266.00 L 94.08,265.97 L 83.98,265.87 L 81.52,265.84 L 76.78,265.78 L 74.44,265.75 L 70.00,265.68 L 67.81,265.65 L 63.69,265.57 L 61.68,265.53 L 57.93,265.44 L 56.11,265.40 L 52.78,265.31 L 51.16,265.26 L 48.28,265.15 L 46.90,265.10 L 44.51,264.99 L 43.37,264.93 L 41.51,264.81 L 40.65,264.75 L 39.36,264.62 L 38.79,264.56 L 38.11,264.42 L 36.48,263.98 L 33.24,262.81 L 31.63,262.18 L 28.49,260.66 L 26.93,259.85 L 23.91,258.01 L 22.43,257.06 L 19.60,254.94 L 18.21,253.85 L 15.60,251.48 L 14.33,250.27 L 12.01,247.70 L 10.88,246.40 L 8.87,243.66 L 6.28,239.39 L 5.48,237.89 L 4.18,235.33 L 3.57,234.05 L 2.61,231.27 L 2.39,230.52 L 2.01,228.83 L 1.82,227.94 L 1.50,225.90 L 1.35,224.82 L 1.09,222.31 L 0.97,220.98 L 0.76,217.89 L 0.67,216.27 L 0.51,212.49 L 0.44,210.51 L 0.32,205.95 L 0.27,203.55 L 0.19,198.08 L 0.16,195.22 L 0.10,188.74 L 0.09,187.05 L 0.08,183.46 L 0.07,181.63 L 0.05,177.76 L 0.05,175.78 L 0.04,171.60 L 0.03,169.46 L 0.03,164.96 L 0.02,162.67 L 0.02,157.84 L 0.02,155.38 L 0.02,150.20 L 0.02,147.57 L 0.02,142.03 L 0.01,133.30 L 0.01,129.56 L 0.02,122.44 L 0.02,118.94 L 0.03,112.29 L 0.03,109.03 L 0.05,102.85 L 0.05,99.82 L 0.07,94.11 L 0.08,91.31 L 0.11,86.06 L 0.12,83.49 L 0.16,78.69 L 0.17,76.34 L 0.21,71.99 L 0.23,69.88 L 0.27,65.97 L 0.29,64.07 L 0.34,60.60 L 0.37,58.92 L 0.42,55.88 L 0.45,54.42 L 0.51,51.81 L 0.55,50.56 L 0.61,48.37 L 0.65,47.33 L 0.72,45.56 L 0.76,44.72 L 0.84,43.36 L 0.88,42.73 L 0.97,41.78 L 1.11,40.80 L 1.60,38.44 L 3.17,33.83 L 4.04,31.55 L 6.31,27.18 L 7.53,25.03 L 10.41,20.97 L 11.92,18.99 L 15.34,15.34 L 17.11,13.57 L 20.97,10.41 L 22.95,8.90 L 27.18,6.31 L 29.33,5.10 L 33.83,3.17 L 40.80,1.11 L 41.03,1.06 L 41.86,0.97 L 42.34,0.92 L 43.67,0.84 L 44.41,0.80 L 46.25,0.72 L 47.24,0.68 L 49.62,0.61 L 50.87,0.57 L 53.77,0.51 L 55.29,0.48 L 58.74,0.42 L 60.53,0.39 L 64.53,0.34 L 66.59,0.31 L 71.15,0.26 L 73.50,0.24 L 78.63,0.20 L 81.27,0.18 L 86.98,0.15 L 89.90,0.13 L 96.20,0.10 L 99.43,0.09 L 106.32,0.06 L 109.85,0.05 L 117.36,0.04 L 121.19,0.03 L 129.31,0.02 L 133.45,0.01 L 142.20,0.00 L 156.05,0.00 L 266.00,0.00 M 170.00,22.00 L 170.00,24.32 L 170.22,25.65 L 170.56,26.85 L 170.81,27.55 L 171.99,30.58 L 172.75,32.07 L 174.34,34.87 L 175.43,36.40 L 176.05,37.06 L 177.36,38.32 L 178.16,38.91 L 179.88,40.11 L 180.96,40.75 L 182.72,41.78 L 183.75,42.34 L 184.23,42.57 L 186.06,43.32 L 187.09,43.54 L 188.15,43.73 L 188.76,43.79 L 190.04,43.90 L 190.80,43.93 L 192.41,43.98 L 193.37,43.99 L 195.41,44.00 L 206.85,44.00 L 206.86,98.75 L 206.84,109.89 L 206.81,117.11 L 206.79,120.55 L 206.73,127.33 L 206.70,130.49 L 206.63,136.65 L 206.58,139.44 L 206.49,144.83 L 206.44,147.17 L 206.39,149.44 L 206.37,150.48 L 206.31,152.50 L 206.28,153.40 L 206.23,155.13 L 206.20,155.88 L 206.14,157.31 L 206.10,157.90 L 206.04,158.99 L 206.01,159.41 L 205.95,160.16 L 205.91,160.40 L 204.94,165.95 L 204.09,169.54 L 203.56,171.29 L 202.45,174.74 L 201.79,176.42 L 200.42,179.74 L 199.63,181.35 L 197.98,184.53 L 197.06,186.07 L 195.16,189.12 L 194.10,190.59 L 191.93,193.49 L 190.75,194.89 L 188.32,197.66 L 187.00,198.99 L 180.74,204.67 L 176.47,207.88 L 174.14,209.28 L 169.32,211.94 L 166.56,213.15 L 163.75,214.35 L 162.22,214.94 L 159.10,216.10 L 157.41,216.68 L 153.94,217.85 L 151.96,218.49 L 151.08,218.75 L 147.82,219.62 L 146.27,219.87 L 143.12,220.26 L 141.18,220.34 L 139.15,220.41 L 137.96,220.43 L 135.47,220.45 L 134.00,220.46 L 130.41,220.45 L 128.31,220.42 L 127.37,220.39 L 123.90,220.22 L 122.44,220.05 L 119.65,219.65 L 118.29,219.34 L 115.56,218.64 L 114.00,218.16 L 104.68,214.73 L 99.09,212.11 L 96.52,210.57 L 91.49,207.32 L 89.09,205.41 L 84.35,201.39 L 82.00,199.03 L 78.60,195.50 L 76.57,193.25 L 75.65,192.16 L 72.24,187.85 L 70.83,185.64 L 68.18,181.14 L 67.02,178.62 L 65.87,176.05 L 65.31,174.66 L 64.21,171.81 L 63.66,170.26 L 62.68,167.46 L 62.15,165.83 L 61.94,165.08 L 61.21,162.23 L 61.01,160.73 L 60.82,159.18 L 60.76,158.31 L 60.66,156.50 L 60.63,155.45 L 60.58,153.23 L 60.57,151.92 L 60.56,149.14 L 60.56,147.50 L 60.63,142.02 L 60.74,138.80 L 60.85,137.34 L 61.09,134.54 L 61.27,133.24 L 61.67,130.72 L 61.94,129.51 L 63.22,124.76 L 64.23,122.25 L 65.30,119.69 L 65.94,118.30 L 67.29,115.44 L 68.09,113.85 L 71.75,107.37 L 74.49,103.31 L 76.00,101.41 L 79.12,97.69 L 80.81,95.96 L 84.31,92.60 L 86.19,91.05 L 90.05,88.04 L 92.11,86.67 L 96.33,84.02 L 98.57,82.84 L 103.13,80.56 L 105.54,79.56 L 110.45,77.66 L 113.04,76.85 L 117.34,75.67 L 120.04,75.13 L 121.54,74.96 L 124.66,74.68 L 126.60,74.62 L 128.62,74.57 L 129.76,74.55 L 132.14,74.53 L 133.50,74.54 L 137.35,74.56 L 139.60,74.60 L 140.60,74.64 L 144.29,74.84 L 145.88,75.04 L 148.98,75.51 L 150.60,75.88 L 152.25,76.28 L 153.14,76.52 L 154.97,77.02 L 156.00,77.32 L 159.98,78.54 L 162.17,79.29 L 163.05,79.66 L 164.70,80.40 L 165.35,80.80 L 166.52,81.62 L 166.96,82.09 L 167.75,83.07 L 168.03,83.64 L 168.50,84.86 L 168.64,85.58 L 168.88,87.12 L 168.93,88.03 L 169.00,89.97 L 169.00,91.11 L 168.93,94.10 L 168.80,95.68 L 168.71,96.26 L 168.49,97.27 L 168.35,97.56 L 168.04,98.00 L 167.85,98.00 L 167.39,97.93 L 166.87,97.81 L 166.52,97.72 L 164.88,97.27 L 163.77,96.94 L 161.38,96.23 L 159.99,95.80 L 157.12,94.90 L 155.60,94.40 L 150.58,92.88 L 147.42,92.04 L 145.92,91.70 L 142.96,91.08 L 141.55,90.85 L 138.75,90.45 L 137.40,90.34 L 132.08,90.08 L 129.48,90.26 L 124.31,90.84 L 121.64,91.44 L 113.99,93.66 L 109.14,95.61 L 106.86,96.80 L 102.39,99.32 L 100.31,100.78 L 96.26,103.84 L 94.41,105.56 L 90.81,109.12 L 89.20,111.07 L 86.10,115.10 L 84.76,117.27 L 82.20,121.73 L 81.13,124.10 L 79.15,128.94 L 78.39,131.50 L 77.62,134.78 L 77.21,137.23 L 77.07,138.55 L 76.63,144.05 L 76.63,146.92 L 76.78,152.67 L 77.08,155.34 L 77.41,157.95 L 77.63,159.16 L 78.12,161.48 L 78.41,162.50 L 79.92,166.98 L 81.10,169.87 L 81.78,171.27 L 84.70,176.74 L 86.46,179.25 L 90.17,184.13 L 92.30,186.32 L 96.71,190.53 L 99.14,192.36 L 104.15,195.83 L 106.84,197.27 L 112.34,199.92 L 115.24,200.91 L 121.13,202.68 L 124.19,203.19 L 130.37,203.98 L 133.54,203.99 L 143.17,203.24 L 149.35,202.01 L 152.30,201.04 L 158.08,198.90 L 160.79,197.51 L 166.07,194.52 L 168.49,192.73 L 173.17,188.97 L 175.25,186.83 L 179.24,182.38 L 180.94,179.91 L 184.13,174.84 L 185.39,172.09 L 186.60,169.31 L 187.11,167.87 L 188.08,164.96 L 188.47,163.46 L 188.90,161.43 L 189.14,159.81 L 189.24,158.81 L 189.43,156.66 L 189.51,155.32 L 189.65,152.47 L 189.70,150.72 L 189.81,147.00 L 189.85,144.75 L 189.88,142.43 L 189.90,141.17 L 189.92,138.57 L 189.94,137.15 L 189.96,134.24 L 189.96,132.66 L 189.98,129.42 L 189.98,127.67 L 189.99,124.07 L 189.99,122.14 L 190.00,118.17 L 190.00,116.04 L 189.99,109.08 L 189.99,104.85 L 189.99,102.93 L 189.98,99.21 L 189.97,97.54 L 189.96,94.30 L 189.95,92.85 L 189.93,90.06 L 189.91,88.81 L 189.88,86.42 L 189.86,85.37 L 189.82,83.34 L 189.80,82.46 L 189.74,80.76 L 189.71,80.03 L 189.57,77.38 L 189.47,76.40 L 189.26,74.66 L 189.13,74.03 L 188.84,72.91 L 188.66,72.48 L 188.28,71.68 L 188.04,71.30 L 185.82,68.38 L 184.93,67.57 L 184.40,67.19 L 183.27,66.45 L 182.58,66.09 L 181.12,65.36 L 180.23,64.98 L 178.33,64.22 L 177.19,63.81 L 174.77,62.97 L 173.33,62.50 L 170.28,61.52 L 168.49,60.96 L 162.60,59.18 L 159.02,58.19 L 157.37,57.77 L 154.14,57.00 L 152.60,56.69 L 149.58,56.13 L 148.10,55.92 L 142.20,55.26 L 139.02,55.16 L 135.79,55.10 L 134.05,55.12 L 130.47,55.19 L 128.50,55.27 L 122.83,55.60 L 119.26,55.94 L 117.56,56.17 L 110.93,57.26 L 107.75,58.11 L 101.44,60.02 L 98.21,61.32 L 94.96,62.70 L 93.27,63.48 L 89.86,65.12 L 88.07,66.04 L 79.73,70.95 L 74.45,74.67 L 71.96,76.74 L 67.08,81.01 L 64.81,83.34 L 60.38,88.12 L 58.34,90.68 L 54.39,95.91 L 52.60,98.68 L 49.17,104.32 L 47.66,107.28 L 44.78,113.29 L 43.56,116.41 L 41.28,122.74 L 40.37,126.00 L 39.48,129.95 L 39.07,132.87 L 38.93,134.65 L 38.81,136.49 L 38.76,137.53 L 38.68,139.68 L 38.65,140.90 L 38.61,143.43 L 38.59,144.85 L 38.58,147.83 L 38.58,149.50 L 38.60,154.76 L 38.64,157.72 L 38.67,158.98 L 38.74,161.36 L 38.80,162.39 L 38.93,164.35 L 39.02,165.22 L 39.47,168.47 L 39.84,170.05 L 40.24,171.64 L 40.48,172.50 L 41.00,174.27 L 41.31,175.28 L 43.45,181.51 L 45.06,185.56 L 45.95,187.53 L 47.80,191.43 L 48.81,193.32 L 50.89,197.05 L 52.02,198.86 L 54.32,202.43 L 55.55,204.15 L 58.06,207.55 L 59.40,209.18 L 62.12,212.39 L 63.55,213.92 L 66.46,216.94 L 67.99,218.38 L 71.09,221.20 L 72.70,222.53 L 75.98,225.14 L 77.68,226.36 L 81.12,228.76 L 82.91,229.87 L 86.51,232.04 L 88.37,233.03 L 92.12,234.97 L 94.06,235.84 L 97.95,237.54 L 99.95,238.29 L 103.98,239.73 L 106.04,240.36 L 110.20,241.54 L 112.32,242.04 L 115.34,242.64 L 117.08,242.88 L 120.71,243.30 L 122.68,243.44 L 126.73,243.67 L 128.85,243.72 L 133.14,243.78 L 135.30,243.74 L 139.63,243.62 L 141.74,243.49 L 145.92,243.19 L 147.89,242.98 L 151.74,242.51 L 153.47,242.21 L 156.79,241.58 L 158.19,241.20 L 164.85,239.23 L 169.05,237.81 L 171.05,237.05 L 174.97,235.47 L 176.84,234.62 L 180.51,232.88 L 182.27,231.94 L 185.73,230.00 L 187.39,228.96 L 190.66,226.82 L 192.24,225.66 L 195.37,223.29 L 196.89,222.02 L 199.90,219.41 L 201.38,218.00 L 207.55,211.66 L 211.08,207.50 L 212.64,205.33 L 215.63,200.91 L 217.00,198.48 L 219.69,193.47 L 221.01,190.62 L 222.37,187.71 L 223.18,185.95 L 223.55,185.13 L 224.90,181.96 L 225.43,180.34 L 226.40,177.01 L 226.77,175.00 L 227.11,172.91 L 227.26,171.73 L 227.53,169.25 L 227.65,167.84 L 227.87,164.88 L 227.95,163.18 L 228.12,159.63 L 228.19,157.59 L 228.31,153.34 L 228.36,150.92 L 228.45,145.87 L 228.48,143.00 L 228.54,137.04 L 228.57,133.69 L 228.59,130.26 L 228.60,128.45 L 228.63,124.76 L 228.64,122.81 L 228.66,118.84 L 228.66,116.74 L 228.68,112.47 L 228.69,110.22 L 228.71,105.64 L 228.72,103.23 L 228.74,98.33 L 228.75,95.75 L 229.07,22.00 M 526.26,95.02 L 526.64,95.13 L 526.88,95.21 L 527.59,95.45 L 530.50,96.47 L 531.80,96.94 L 534.74,97.53 L 536.28,97.76 L 539.73,97.89 L 541.53,97.89 L 545.56,97.54 L 552.34,96.50 L 555.13,95.96 L 560.51,95.36 L 563.16,95.14 L 568.21,95.15 L 570.68,95.23 L 575.34,95.82 L 577.61,96.20 L 581.82,97.37 L 583.86,98.02 L 587.57,99.75 L 589.36,100.68 L 592.51,102.95 L 594.01,104.15 L 596.54,106.93 L 599.60,111.68 L 600.02,112.52 L 600.61,114.45 L 600.74,115.00 L 600.96,116.33 L 601.06,117.05 L 601.23,118.82 L 601.31,119.77 L 601.43,122.10 L 601.49,123.35 L 601.58,126.39 L 601.62,128.01 L 601.70,131.89 L 601.80,138.80 L 601.82,140.22 L 601.85,142.82 L 601.87,144.07 L 601.89,146.35 L 601.90,147.46 L 601.92,149.45 L 601.92,150.41 L 601.93,152.15 L 601.93,153.82 L 601.89,156.48 L 601.86,157.72 L 601.74,159.68 L 601.68,160.59 L 601.48,162.05 L 601.37,162.74 L 601.06,163.90 L 599.71,167.30 L 598.95,168.95 L 597.11,171.89 L 596.13,173.31 L 593.83,175.82 L 592.62,177.02 L 589.82,179.12 L 585.00,181.88 L 583.77,182.46 L 581.73,183.27 L 580.72,183.63 L 578.59,184.07 L 578.02,184.16 L 576.74,184.29 L 576.07,184.34 L 574.52,184.42 L 573.71,184.45 L 571.82,184.48 L 568.50,184.50 L 567.28,184.50 L 565.20,184.48 L 564.21,184.47 L 562.51,184.42 L 561.71,184.39 L 560.32,184.29 L 559.66,184.24 L 558.51,184.08 L 557.39,183.91 L 555.49,183.32 L 552.50,182.00 L 547.50,179.50 L 547.80,202.25 L 548.10,225.00 L 545.80,224.93 L 545.49,224.93 L 544.47,224.79 L 543.92,224.71 L 542.56,224.46 L 541.15,224.18 L 538.00,223.40 L 536.31,222.95 L 533.17,221.52 L 532.44,221.14 L 531.13,220.29 L 529.50,218.95 L 526.50,215.96 L 526.22,155.48 L 526.20,151.32 L 526.17,143.33 L 526.16,139.40 L 526.13,132.00 L 526.12,128.38 L 526.11,121.73 L 526.11,118.51 L 526.10,112.77 L 526.10,111.40 L 526.11,108.86 L 526.11,107.63 L 526.11,105.37 L 526.11,104.28 L 526.12,102.34 L 526.12,101.40 L 526.13,99.78 L 526.14,99.01 L 526.15,97.74 L 526.16,97.15 L 526.17,96.25 L 526.18,95.84 L 526.19,95.33 L 526.22,95.02 M 435.14,96.14 L 438.03,96.97 L 439.51,97.33 L 442.70,97.67 L 444.34,97.79 L 448.01,97.66 L 454.23,96.94 L 457.69,96.40 L 464.55,95.80 L 467.92,95.58 L 474.28,95.61 L 475.82,95.66 L 478.72,95.86 L 480.14,95.99 L 482.78,96.35 L 484.05,96.54 L 486.36,97.05 L 489.38,97.99 L 491.09,98.64 L 494.33,100.39 L 495.91,101.32 L 498.77,103.54 L 500.14,104.70 L 502.50,107.28 L 505.32,111.43 L 505.84,112.40 L 506.53,114.25 L 506.69,114.78 L 506.92,116.04 L 507.03,116.72 L 507.19,118.44 L 507.26,119.38 L 507.36,121.76 L 507.40,123.05 L 507.45,126.27 L 507.46,127.14 L 507.48,129.06 L 507.48,130.06 L 507.49,132.25 L 507.49,133.39 L 507.50,135.89 L 507.50,140.00 L 507.50,141.74 L 507.50,144.91 L 507.49,146.45 L 507.47,149.25 L 507.46,150.60 L 507.42,153.05 L 507.40,154.24 L 507.33,156.38 L 507.29,157.41 L 507.19,159.27 L 507.13,160.17 L 506.98,161.78 L 506.82,163.34 L 506.33,165.84 L 506.06,167.01 L 505.30,168.95 L 504.88,169.87 L 503.78,171.49 L 503.19,172.29 L 501.69,173.86 L 498.94,176.43 L 498.04,177.25 L 496.33,178.66 L 495.48,179.33 L 493.84,180.46 L 492.19,181.52 L 488.73,182.92 L 487.82,183.22 L 485.86,183.68 L 484.85,183.88 L 482.61,184.16 L 481.46,184.28 L 478.87,184.42 L 474.50,184.50 L 473.28,184.50 L 471.20,184.48 L 470.21,184.47 L 468.51,184.42 L 467.71,184.39 L 466.32,184.29 L 465.66,184.24 L 464.51,184.08 L 463.39,183.91 L 461.49,183.32 L 458.50,182.00 L 453.50,179.50 L 454.14,225.00 L 451.82,224.91 L 451.50,224.90 L 450.52,224.79 L 449.99,224.71 L 448.71,224.50 L 447.39,224.26 L 444.50,223.61 L 442.97,223.23 L 440.35,222.33 L 439.12,221.85 L 437.10,220.71 L 436.16,220.12 L 434.71,218.76 L 433.15,216.44 L 433.05,216.21 L 432.87,215.01 L 432.82,214.64 L 432.74,213.71 L 432.70,213.21 L 432.62,212.00 L 432.59,211.36 L 432.52,209.87 L 432.49,209.08 L 432.42,207.30 L 432.39,206.37 L 432.34,204.28 L 432.31,203.19 L 432.27,200.79 L 432.24,199.55 L 432.20,196.82 L 432.18,195.41 L 432.15,192.36 L 432.13,190.78 L 432.10,187.38 L 432.09,185.64 L 432.06,181.88 L 432.05,179.96 L 432.04,175.84 L 432.03,173.74 L 432.02,169.25 L 432.01,166.96 L 432.00,162.09 L 432.00,154.35 L 432.00,150.82 L 432.00,144.39 L 432.00,141.27 L 432.01,135.61 L 432.01,132.87 L 432.02,127.93 L 432.03,125.55 L 432.04,121.29 L 432.05,119.23 L 432.07,115.60 L 432.09,113.85 L 432.12,110.79 L 432.13,109.33 L 432.18,106.80 L 432.20,105.59 L 432.25,103.55 L 432.28,102.58 L 432.35,100.96 L 432.39,100.21 L 432.47,98.98 L 432.51,98.41 L 432.61,97.51 L 432.66,97.11 L 432.78,96.50 L 432.90,95.97 L 433.20,95.55 L 433.75,95.54 M 886.90,95.45 L 886.91,95.73 L 886.94,96.69 L 886.95,97.22 L 886.96,98.65 L 886.97,99.41 L 886.97,101.25 L 886.97,102.21 L 886.96,104.39 L 886.95,105.52 L 886.93,108.00 L 886.82,116.25 L 886.80,117.49 L 886.76,119.76 L 886.74,120.86 L 886.70,122.87 L 886.65,124.82 L 886.56,128.05 L 886.51,129.57 L 886.39,132.05 L 886.32,133.21 L 886.16,135.09 L 886.07,135.98 L 885.84,137.45 L 885.71,138.14 L 885.40,139.35 L 884.09,142.79 L 883.51,144.09 L 882.08,146.47 L 881.33,147.62 L 879.56,149.70 L 878.63,150.70 L 876.51,152.48 L 875.41,153.33 L 872.95,154.81 L 871.68,155.51 L 868.87,156.69 L 867.42,157.25 L 864.27,158.13 L 862.64,158.53 L 859.14,159.12 L 853.50,159.66 L 851.76,159.76 L 848.80,159.81 L 847.38,159.80 L 844.81,159.64 L 843.55,159.52 L 841.05,159.11 L 837.00,158.18 L 835.97,157.91 L 834.03,157.45 L 833.09,157.24 L 831.48,156.92 L 830.74,156.79 L 829.63,156.64 L 828.75,156.66 L 828.61,156.75 L 828.40,157.16 L 828.30,157.41 L 828.17,158.09 L 828.05,158.82 L 828.03,160.75 L 828.05,161.74 L 828.31,163.69 L 828.98,165.96 L 829.19,166.36 L 829.81,167.06 L 830.16,167.40 L 831.10,167.98 L 831.62,168.26 L 832.96,168.74 L 833.69,168.96 L 835.52,169.36 L 836.50,169.54 L 838.88,169.86 L 840.15,170.01 L 843.17,170.27 L 844.77,170.39 L 848.50,170.61 L 855.00,170.90 L 856.95,170.98 L 860.30,171.12 L 861.90,171.19 L 864.63,171.34 L 865.93,171.42 L 868.13,171.59 L 869.17,171.67 L 870.94,171.86 L 871.77,171.97 L 873.20,172.20 L 873.87,172.32 L 875.05,172.60 L 878.11,173.69 L 879.17,174.16 L 881.09,175.37 L 882.02,176.02 L 883.68,177.54 L 884.47,178.33 L 885.84,180.13 L 886.48,181.07 L 887.55,183.13 L 888.05,184.18 L 888.81,186.46 L 889.15,187.63 L 889.58,190.11 L 889.75,191.37 L 889.85,194.01 L 889.59,198.13 L 889.42,199.52 L 888.77,202.19 L 888.41,203.49 L 887.39,205.98 L 886.83,207.19 L 885.46,209.48 L 884.72,210.59 L 883.01,212.66 L 882.11,213.66 L 880.06,215.49 L 879.00,216.38 L 876.66,217.95 L 875.45,218.70 L 872.81,220.00 L 868.55,221.61 L 867.62,221.90 L 865.28,222.38 L 864.04,222.61 L 861.18,222.97 L 859.71,223.14 L 856.51,223.38 L 854.89,223.48 L 851.52,223.59 L 848.15,223.67 L 841.63,223.42 L 840.08,223.33 L 837.25,223.03 L 835.89,222.86 L 833.58,222.42 L 832.12,222.09 L 829.41,221.33 L 828.10,220.93 L 825.71,220.03 L 824.55,219.57 L 822.47,218.53 L 821.47,218.00 L 819.71,216.84 L 818.87,216.24 L 817.43,214.94 L 816.75,214.28 L 815.64,212.85 L 815.12,212.12 L 814.33,210.57 L 813.52,208.11 L 813.33,207.23 L 813.35,205.08 L 813.43,203.96 L 813.93,201.54 L 814.23,200.33 L 815.14,197.92 L 816.88,194.65 L 818.78,191.79 L 819.92,195.25 L 820.28,196.35 L 821.30,198.25 L 821.87,199.16 L 823.40,200.78 L 824.24,201.57 L 826.41,203.03 L 830.51,205.17 L 831.57,205.65 L 833.50,206.33 L 834.48,206.64 L 836.68,207.03 L 837.27,207.11 L 838.61,207.23 L 839.30,207.29 L 840.90,207.37 L 841.73,207.40 L 843.66,207.44 L 847.00,207.47 L 848.14,207.47 L 850.14,207.46 L 851.10,207.45 L 852.78,207.40 L 854.39,207.35 L 856.81,207.14 L 857.92,207.01 L 859.61,206.61 L 861.69,205.76 L 862.80,205.15 L 864.56,203.79 L 865.36,203.08 L 866.52,201.47 L 867.03,200.62 L 867.64,198.68 L 868.00,195.30 L 868.00,194.44 L 867.87,192.98 L 867.78,192.30 L 867.36,191.17 L 867.11,190.64 L 866.28,189.79 L 865.80,189.39 L 864.43,188.77 L 863.66,188.49 L 861.62,188.05 L 860.50,187.85 L 857.66,187.55 L 856.13,187.41 L 852.37,187.20 L 851.36,187.15 L 849.16,187.05 L 845.55,186.92 L 843.06,186.84 L 838.73,186.63 L 836.66,186.51 L 833.07,186.22 L 831.37,186.07 L 828.43,185.67 L 827.03,185.46 L 824.64,184.94 L 823.50,184.66 L 821.56,183.99 L 820.64,183.63 L 819.04,182.78 L 818.28,182.33 L 816.94,181.28 L 815.10,179.46 L 814.38,178.65 L 813.24,176.91 L 812.71,176.02 L 811.94,174.14 L 811.60,173.19 L 811.19,171.20 L 811.04,170.19 L 811.00,168.11 L 811.03,167.06 L 811.36,164.92 L 811.58,163.83 L 812.28,161.64 L 812.68,160.54 L 813.75,158.32 L 815.77,154.99 L 816.25,154.29 L 817.04,153.13 L 817.40,152.59 L 817.97,151.71 L 818.23,151.29 L 818.60,150.61 L 818.75,150.29 L 818.93,149.76 L 819.06,149.26 L 818.83,148.45 L 817.85,147.06 L 817.28,146.36 L 816.28,144.34 L 815.79,143.24 L 814.97,140.56 L 814.58,139.16 L 813.96,136.04 L 813.68,134.44 L 813.28,131.07 L 813.11,129.37 L 812.95,125.95 L 812.91,124.25 L 813.02,120.99 L 813.11,119.39 L 813.50,116.49 L 814.43,112.75 L 815.06,110.99 L 816.86,107.83 L 817.85,106.31 L 820.32,103.67 L 821.64,102.41 L 824.73,100.30 L 826.35,99.31 L 830.01,97.74 L 831.90,97.03 L 836.06,96.05 L 838.20,95.63 L 842.82,95.23 L 845.18,95.11 L 850.18,95.33 L 858.08,96.38 L 860.70,96.88 L 865.56,97.50 L 867.93,97.75 L 872.22,97.89 L 874.29,97.89 L 877.91,97.54 L 882.50,96.47 L 883.60,96.07 L 885.42,95.45 L 885.82,95.32 L 886.39,95.13 L 886.84,95.02 L 886.86,95.01 M 638.50,62.37 L 640.30,62.58 L 643.62,63.29 L 645.22,63.68 L 648.04,64.71 L 649.38,65.26 L 651.57,66.55 L 654.02,68.75 L 654.26,69.06 L 654.66,69.75 L 654.84,70.15 L 655.14,71.36 L 655.21,71.71 L 655.33,72.60 L 655.39,73.08 L 655.49,74.25 L 655.54,74.87 L 655.62,76.38 L 655.66,77.19 L 655.73,79.09 L 655.76,80.10 L 655.82,82.46 L 655.84,83.70 L 655.88,86.56 L 655.90,88.07 L 655.93,91.49 L 655.94,93.29 L 655.96,97.34 L 655.97,99.44 L 655.98,104.17 L 655.99,106.62 L 655.99,112.08 L 656.00,114.90 L 656.00,121.15 L 656.00,131.47 L 656.00,134.08 L 656.00,139.06 L 655.99,141.50 L 655.98,146.15 L 655.98,148.43 L 655.96,152.75 L 655.95,154.86 L 655.93,158.86 L 655.92,160.82 L 655.89,164.50 L 655.88,166.30 L 655.84,169.67 L 655.83,171.32 L 655.79,174.38 L 655.77,175.88 L 655.72,178.64 L 655.70,179.99 L 655.65,182.46 L 655.62,183.66 L 655.56,185.84 L 655.53,186.90 L 655.46,188.80 L 655.43,189.71 L 655.36,191.34 L 655.32,192.11 L 655.24,193.46 L 655.20,194.11 L 655.12,195.19 L 654.84,197.47 L 654.47,199.30 L 653.33,202.64 L 652.70,204.25 L 651.10,207.11 L 650.24,208.47 L 648.23,210.81 L 647.18,211.91 L 644.83,213.68 L 643.61,214.49 L 640.97,215.65 L 639.63,216.15 L 636.78,216.67 L 635.33,216.84 L 632.33,216.66 L 630.81,216.48 L 627.72,215.56 L 626.68,215.19 L 624.03,213.92 L 620.47,211.86 L 617.00,209.50 L 620.02,208.60 L 620.43,208.48 L 621.46,207.95 L 622.00,207.65 L 623.16,206.85 L 626.46,203.91 L 627.28,203.00 L 628.62,201.38 L 629.25,200.55 L 630.25,198.63 L 630.48,198.10 L 630.88,196.88 L 631.07,196.23 L 631.41,194.72 L 631.57,193.92 L 631.84,192.05 L 631.97,191.06 L 632.19,188.74 L 632.29,187.52 L 632.46,184.69 L 632.53,183.20 L 632.66,179.77 L 632.72,177.98 L 632.80,173.87 L 632.84,171.73 L 632.90,166.88 L 632.92,164.36 L 632.96,158.69 L 632.97,155.74 L 632.99,149.16 L 632.99,145.75 L 633.00,138.20 L 633.00,136.24 L 633.00,132.14 L 633.00,125.68 L 633.00,61.72 M 719.28,95.02 L 719.66,95.13 L 719.90,95.21 L 720.60,95.45 L 723.50,96.47 L 724.17,96.71 L 725.70,97.10 L 726.51,97.28 L 728.28,97.55 L 730.11,97.78 L 734.30,97.89 L 736.45,97.88 L 741.04,97.51 L 748.00,96.40 L 750.58,95.85 L 755.74,95.32 L 764.00,95.34 L 765.76,95.45 L 769.03,95.83 L 770.63,96.04 L 773.58,96.64 L 775.02,96.97 L 777.67,97.78 L 778.95,98.22 L 781.30,99.26 L 782.44,99.81 L 784.51,101.09 L 785.51,101.76 L 787.30,103.27 L 788.16,104.06 L 789.69,105.81 L 791.69,108.73 L 794.50,113.50 L 794.80,149.28 L 795.09,185.06 L 792.80,184.59 L 792.48,184.52 L 791.59,184.35 L 791.12,184.27 L 790.01,184.07 L 786.55,183.47 L 785.12,183.24 L 782.32,182.39 L 780.96,181.91 L 778.52,180.68 L 777.38,180.03 L 775.59,178.60 L 773.96,176.39 L 773.89,176.22 L 773.77,175.33 L 773.70,174.79 L 773.59,173.24 L 773.53,172.39 L 773.42,170.27 L 773.37,169.15 L 773.28,166.53 L 773.24,165.17 L 773.16,162.14 L 773.13,160.59 L 773.08,157.23 L 773.00,146.33 L 773.00,118.80 L 768.64,114.44 L 766.01,112.92 L 764.61,112.26 L 761.26,111.51 L 760.37,111.37 L 758.47,111.24 L 757.49,111.19 L 755.40,111.25 L 754.33,111.31 L 752.05,111.56 L 748.41,112.15 L 741.50,113.50 L 741.24,149.25 L 741.22,151.71 L 741.17,156.43 L 741.14,158.75 L 741.08,163.12 L 741.04,165.26 L 740.96,169.18 L 740.92,171.08 L 740.84,174.46 L 740.79,176.08 L 740.69,178.82 L 740.65,180.10 L 740.54,182.11 L 740.49,183.01 L 740.39,184.18 L 740.24,184.88 L 740.14,184.87 L 739.52,184.77 L 739.15,184.71 L 738.10,184.53 L 736.98,184.35 L 734.01,183.86 L 732.30,183.57 L 729.20,182.73 L 727.72,182.28 L 725.17,181.14 L 723.98,180.53 L 722.13,179.16 L 720.26,176.91 L 720.15,176.69 L 719.95,175.80 L 719.85,175.27 L 719.68,173.72 L 719.60,172.86 L 719.47,170.58 L 719.40,169.33 L 719.30,166.24 L 719.25,164.59 L 719.17,160.61 L 719.14,158.50 L 719.09,153.55 L 719.07,152.25 L 719.06,149.46 L 719.05,148.03 L 719.03,144.97 L 719.03,143.41 L 719.02,140.07 L 719.01,134.75 L 719.01,132.02 L 719.02,126.77 L 719.02,124.18 L 719.03,119.32 L 719.03,116.94 L 719.05,112.57 L 719.06,110.45 L 719.08,106.68 L 719.09,104.88 L 719.11,101.82 L 719.13,100.39 L 719.15,98.15 L 719.17,97.14 L 719.20,95.82 L 719.21,95.56 L 719.22,95.22 L 719.25,95.02 M 986.12,95.67 L 987.85,95.73 L 990.90,95.98 L 992.36,96.12 L 994.96,96.55 L 996.21,96.80 L 998.45,97.44 L 999.53,97.80 L 1001.49,98.69 L 1002.44,99.17 L 1004.22,100.33 L 1005.10,100.95 L 1006.79,102.42 L 1009.31,105.00 L 1010.65,106.49 L 1012.67,109.46 L 1013.58,110.96 L 1014.80,114.13 L 1015.32,115.76 L 1015.80,119.31 L 1015.77,125.30 L 1015.66,126.62 L 1015.26,129.09 L 1015.03,130.29 L 1014.37,132.55 L 1014.01,133.65 L 1013.09,135.70 L 1012.60,136.70 L 1011.41,138.55 L 1010.78,139.45 L 1009.32,141.11 L 1008.55,141.92 L 1006.81,143.40 L 1005.90,144.11 L 1003.87,145.42 L 1000.50,147.19 L 999.42,147.69 L 997.48,148.39 L 996.49,148.70 L 994.27,149.09 L 993.67,149.17 L 992.31,149.29 L 991.59,149.34 L 989.93,149.41 L 989.06,149.44 L 987.04,149.48 L 983.50,149.50 L 981.85,149.50 L 978.57,149.43 L 976.97,149.39 L 974.03,149.25 L 972.63,149.17 L 970.37,148.97 L 969.86,148.92 L 969.03,148.81 L 968.10,148.64 L 964.70,147.77 L 965.30,153.58 L 965.43,154.88 L 965.91,157.19 L 966.19,158.30 L 966.98,160.24 L 967.42,161.17 L 968.53,162.77 L 969.13,163.53 L 970.58,164.79 L 971.35,165.38 L 973.17,166.32 L 974.12,166.76 L 976.32,167.39 L 977.47,167.67 L 980.06,168.02 L 984.42,168.22 L 986.12,168.22 L 989.32,168.02 L 990.88,167.88 L 993.80,167.41 L 995.23,167.14 L 997.85,166.40 L 999.13,166.00 L 1001.46,165.01 L 1002.58,164.48 L 1004.59,163.23 L 1005.56,162.58 L 1007.24,161.09 L 1008.04,160.31 L 1009.39,158.58 L 1011.02,155.72 L 1012.75,151.85 L 1014.87,156.24 L 1015.59,157.71 L 1016.47,160.58 L 1016.83,162.00 L 1017.02,164.75 L 1017.03,166.11 L 1016.55,168.69 L 1016.23,169.96 L 1015.09,172.35 L 1014.44,173.52 L 1012.67,175.68 L 1011.70,176.72 L 1009.32,178.61 L 1008.05,179.52 L 1005.06,181.10 L 999.94,183.10 L 999.01,183.39 L 996.72,183.86 L 995.52,184.09 L 992.81,184.43 L 990.02,184.74 L 983.79,184.95 L 980.67,184.98 L 974.67,184.63 L 973.24,184.50 L 970.63,184.15 L 969.37,183.95 L 967.23,183.45 L 965.51,182.99 L 962.61,182.01 L 961.23,181.50 L 958.79,180.31 L 957.60,179.68 L 955.33,178.12 L 951.78,175.19 L 950.87,174.37 L 949.35,172.88 L 948.64,172.15 L 947.48,170.66 L 946.95,169.90 L 946.12,168.20 L 945.73,167.30 L 945.17,165.13 L 944.91,163.97 L 944.56,161.12 L 944.40,159.59 L 944.22,155.82 L 944.18,154.81 L 944.12,152.57 L 944.09,151.42 L 944.06,148.88 L 944.05,147.56 L 944.03,144.68 L 944.02,139.95 L 944.02,138.49 L 944.02,135.83 L 944.02,134.54 L 944.02,132.22 L 944.02,131.09 L 944.03,129.06 L 944.04,128.08 L 944.05,126.32 L 944.07,124.63 L 944.15,121.94 L 944.19,120.70 L 944.33,118.74 L 944.42,117.84 L 944.64,116.40 L 944.77,115.72 L 945.10,114.58 L 946.59,111.19 L 947.37,109.64 L 949.26,106.88 L 950.27,105.56 L 952.67,103.25 L 953.94,102.15 L 956.90,100.24 L 962.00,97.79 L 963.16,97.33 L 965.30,96.68 L 966.40,96.39 L 968.88,96.01 L 969.55,95.93 L 971.06,95.81 L 971.85,95.76 L 973.65,95.69 L 974.59,95.65 L 976.76,95.62 L 980.50,95.59 L 982.53,95.58 M 685.17,96.43 L 686.68,96.70 L 689.68,97.56 L 691.14,98.03 L 693.72,99.19 L 696.62,101.11 L 699.00,103.35 L 699.00,146.98 L 698.98,152.37 L 698.97,155.02 L 698.94,160.02 L 698.92,162.45 L 698.87,166.94 L 698.84,169.11 L 698.78,172.97 L 698.75,174.82 L 698.67,177.95 L 698.63,179.41 L 698.54,181.70 L 698.50,182.73 L 698.40,184.07 L 698.38,184.34 L 698.33,184.68 L 698.25,184.88 L 698.15,184.86 L 697.55,184.77 L 697.19,184.71 L 696.19,184.56 L 695.10,184.40 L 692.28,183.99 L 690.65,183.75 L 687.57,182.92 L 686.08,182.46 L 683.44,181.28 L 682.19,180.65 L 680.22,179.21 L 678.26,176.91 L 678.15,176.69 L 677.95,175.80 L 677.85,175.28 L 677.68,173.75 L 677.60,172.89 L 677.47,170.63 L 677.41,169.40 L 677.30,166.34 L 677.25,164.71 L 677.17,160.77 L 677.14,158.69 L 677.09,153.81 L 677.06,151.24 L 677.03,145.34 L 677.03,143.79 L 677.02,140.50 L 677.01,135.25 L 677.00,96.00 L 680.84,96.00 L 682.18,96.00 M 908.25,55.50 L 909.80,55.71 L 912.87,56.43 L 914.38,56.83 L 917.15,57.85 L 918.48,58.39 L 920.68,59.59 L 923.00,61.49 L 923.16,61.68 L 923.44,62.44 L 923.57,62.89 L 923.79,64.35 L 923.90,65.19 L 924.08,67.58 L 924.13,68.25 L 924.21,69.80 L 924.25,70.62 L 924.32,72.49 L 924.36,73.46 L 924.42,75.68 L 924.46,76.83 L 924.52,79.42 L 924.55,80.76 L 924.60,83.76 L 924.63,85.31 L 924.69,88.73 L 924.71,90.50 L 924.77,94.39 L 924.79,96.39 L 924.84,100.77 L 924.87,103.03 L 924.92,107.93 L 925.00,115.90 L 925.03,119.07 L 925.09,124.86 L 925.11,127.66 L 925.17,132.74 L 925.19,135.20 L 925.24,139.63 L 925.27,141.77 L 925.32,145.60 L 925.35,147.44 L 925.41,150.71 L 925.44,152.29 L 925.50,155.06 L 925.53,156.38 L 925.60,158.70 L 925.63,159.80 L 925.71,161.71 L 925.76,162.62 L 925.85,164.17 L 925.89,164.90 L 926.00,166.14 L 926.11,167.32 L 926.38,168.94 L 926.53,169.67 L 926.89,170.70 L 927.55,172.00 L 928.11,172.96 L 929.95,174.92 L 930.43,175.38 L 931.42,176.17 L 932.83,177.04 L 936.07,178.58 L 933.79,180.70 L 933.47,180.99 L 932.58,181.60 L 932.11,181.91 L 931.00,182.51 L 927.50,183.90 L 926.40,184.20 L 924.83,184.58 L 924.12,184.73 L 922.95,184.83 L 922.37,184.84 L 921.10,184.65 L 920.40,184.52 L 918.50,184.07 L 917.40,183.81 L 915.51,183.16 L 914.61,182.80 L 913.01,181.92 L 912.23,181.44 L 910.78,180.23 L 908.63,177.98 L 907.95,177.16 L 906.82,175.63 L 906.29,174.83 L 905.45,172.97 L 905.05,171.96 L 904.45,169.28 L 904.31,168.54 L 904.07,166.82 L 903.96,165.91 L 903.77,163.82 L 903.68,162.73 L 903.52,160.20 L 903.45,158.88 L 903.34,155.87 L 903.29,154.29 L 903.20,150.73 L 903.17,148.87 L 903.11,144.69 L 903.09,142.51 L 903.05,137.66 L 903.04,135.14 L 903.02,129.55 L 903.01,126.66 L 903.00,120.27 L 903.00,109.72 L 903.00,54.81 M 365.76,60.60 L 367.33,61.48 L 368.19,62.04 L 370.17,63.82 L 371.20,64.80 L 373.45,67.31 L 374.60,68.63 L 377.00,71.71 L 378.21,73.30 L 380.67,76.79 L 383.11,80.35 L 387.69,88.06 L 388.77,89.98 L 390.72,93.77 L 393.23,99.23 L 393.46,99.80 L 394.14,101.57 L 394.50,102.56 L 395.41,105.08 L 395.89,106.43 L 396.99,109.59 L 397.57,111.23 L 398.82,114.91 L 399.47,116.80 L 400.84,120.89 L 401.54,122.97 L 402.99,127.34 L 407.45,141.00 L 408.93,145.61 L 411.79,154.31 L 412.49,156.41 L 413.80,160.36 L 414.45,162.28 L 415.64,165.79 L 416.22,167.48 L 417.25,170.46 L 417.74,171.87 L 418.58,174.21 L 418.97,175.29 L 419.57,176.89 L 420.19,178.35 L 420.72,179.40 L 421.42,181.21 L 421.55,181.60 L 421.69,182.19 L 421.65,182.68 L 421.50,182.83 L 420.94,183.11 L 420.63,183.25 L 419.78,183.51 L 418.88,183.76 L 416.56,184.15 L 415.37,184.32 L 412.93,184.47 L 409.83,184.35 L 408.66,184.16 L 406.48,183.54 L 405.42,183.19 L 403.46,182.21 L 402.50,181.67 L 400.71,180.29 L 399.84,179.55 L 398.21,177.74 L 397.41,176.78 L 395.90,174.52 L 395.17,173.33 L 393.76,170.58 L 393.07,169.13 L 391.74,165.86 L 389.80,160.33 L 386.50,150.02 L 343.96,150.50 L 340.66,160.11 L 339.97,162.12 L 338.64,165.66 L 337.98,167.35 L 336.69,170.29 L 336.05,171.69 L 334.74,174.09 L 334.09,175.23 L 332.72,177.15 L 332.03,178.06 L 330.56,179.57 L 329.81,180.27 L 328.18,181.43 L 327.35,181.97 L 325.52,182.84 L 322.50,183.88 L 321.37,184.19 L 319.81,184.58 L 319.09,184.74 L 317.86,184.81 L 317.23,184.81 L 315.69,184.57 L 315.26,184.49 L 314.22,184.27 L 313.66,184.15 L 312.32,183.85 L 308.15,182.91 L 310.44,177.71 L 310.60,177.35 L 311.06,176.17 L 311.31,175.51 L 311.94,173.79 L 312.27,172.87 L 313.04,170.69 L 313.44,169.55 L 314.33,166.98 L 314.78,165.66 L 315.75,162.79 L 316.25,161.32 L 317.28,158.23 L 320.46,148.50 L 321.28,145.96 L 322.80,141.26 L 323.53,138.97 L 324.90,134.76 L 325.56,132.71 L 326.79,128.95 L 327.38,127.13 L 328.48,123.79 L 329.01,122.16 L 329.99,119.21 L 330.47,117.77 L 331.34,115.16 L 331.77,113.90 L 332.55,111.60 L 332.94,110.49 L 333.64,108.47 L 334.33,106.51 L 335.53,103.29 L 336.11,101.77 L 337.15,99.21 L 337.66,97.98 L 338.64,95.80 L 340.17,92.65 L 341.51,89.97 L 344.48,84.77 L 346.01,82.21 L 349.25,77.37 L 350.89,75.01 L 354.27,70.73 L 359.34,65.15 L 360.01,64.49 L 361.13,63.40 L 361.65,62.89 L 362.50,62.10 L 362.90,61.74 L 363.56,61.21 L 363.88,60.98 L 364.40,60.70 L 364.90,60.47 M 135.95,111.53 L 137.69,111.58 L 138.49,111.63 L 141.56,111.91 L 143.12,112.22 L 144.72,112.55 L 145.59,112.78 L 147.39,113.26 L 148.41,113.56 L 150.54,114.21 L 151.77,114.60 L 154.35,115.44 L 155.86,115.94 L 169.22,120.38 L 168.83,137.94 L 168.69,143.51 L 168.60,146.58 L 168.55,147.85 L 168.43,150.23 L 168.36,151.22 L 168.20,153.06 L 168.09,153.84 L 167.61,156.59 L 167.21,157.76 L 166.32,160.08 L 165.66,161.50 L 162.33,167.09 L 159.54,170.56 L 157.92,172.10 L 154.57,175.01 L 152.76,176.19 L 149.08,178.34 L 147.19,179.06 L 143.76,180.19 L 141.88,180.59 L 138.04,181.29 L 136.11,181.46 L 132.28,181.68 L 130.51,181.61 L 127.13,181.32 L 125.75,180.97 L 120.72,179.27 L 117.46,177.72 L 115.89,176.75 L 112.80,174.69 L 111.35,173.49 L 108.52,170.97 L 107.23,169.56 L 104.13,165.67 L 102.37,162.93 L 101.64,161.49 L 100.28,158.58 L 99.76,157.07 L 98.82,154.03 L 98.51,152.47 L 98.00,149.35 L 97.91,147.76 L 97.83,144.59 L 97.96,143.00 L 98.33,139.82 L 98.68,138.24 L 99.49,135.09 L 100.07,133.54 L 101.32,130.76 L 102.36,128.88 L 102.97,127.95 L 105.63,124.24 L 107.22,122.52 L 110.54,119.19 L 112.33,117.79 L 114.14,116.44 L 115.06,115.85 L 116.89,114.74 L 117.81,114.29 L 121.12,112.82 L 123.08,112.17 L 124.15,111.97 L 126.37,111.66 L 127.80,111.59 L 129.29,111.53 L 130.15,111.52 L 131.95,111.50 L 133.00,111.50 M 561.42,111.50 L 558.89,111.56 L 557.65,111.60 L 555.37,111.73 L 554.29,111.80 L 552.51,111.98 L 550.70,112.28 L 547.90,113.06 L 548.20,135.96 L 548.22,137.30 L 548.25,139.75 L 548.27,140.94 L 548.30,143.11 L 548.34,145.21 L 548.42,148.64 L 548.46,150.25 L 548.56,152.82 L 548.62,154.00 L 548.77,155.86 L 548.85,156.72 L 549.05,158.03 L 549.16,158.63 L 549.43,159.56 L 550.59,161.68 L 551.46,162.84 L 553.58,164.78 L 554.69,165.68 L 557.26,167.07 L 558.60,167.69 L 561.54,168.49 L 566.26,168.98 L 567.56,168.99 L 569.46,168.89 L 570.33,168.81 L 571.70,168.44 L 572.35,168.21 L 573.59,167.41 L 574.24,166.95 L 575.76,165.58 L 579.50,162.16 L 579.77,141.33 L 579.78,139.92 L 579.81,137.34 L 579.82,136.09 L 579.84,133.82 L 579.84,132.72 L 579.84,130.72 L 579.84,129.76 L 579.81,128.02 L 579.78,126.34 L 579.63,123.65 L 579.54,122.40 L 579.25,120.43 L 579.08,119.52 L 578.61,118.10 L 578.35,117.43 L 577.67,116.36 L 577.30,115.86 L 576.38,114.96 L 574.68,113.60 L 574.08,113.15 L 572.89,112.52 L 572.26,112.24 L 570.69,111.88 L 569.83,111.73 L 567.49,111.58 L 566.84,111.55 L 565.32,111.52 L 562.68,111.50 M 467.30,111.50 L 464.81,111.56 L 463.59,111.60 L 461.33,111.73 L 460.26,111.80 L 458.50,111.98 L 456.70,112.28 L 453.90,113.06 L 454.20,136.47 L 454.50,159.87 L 457.50,163.06 L 458.51,164.13 L 460.55,165.78 L 461.58,166.54 L 463.81,167.60 L 464.97,168.07 L 467.57,168.62 L 472.12,168.96 L 473.19,168.97 L 474.94,168.87 L 475.76,168.80 L 477.12,168.53 L 477.77,168.36 L 478.89,167.87 L 479.44,167.59 L 480.49,166.83 L 481.09,166.36 L 482.11,165.40 L 482.60,164.90 L 483.39,163.81 L 483.76,163.24 L 484.36,161.88 L 484.63,161.15 L 485.06,159.40 L 485.25,158.46 L 485.53,156.17 L 485.66,154.94 L 485.82,151.99 L 485.89,150.42 L 485.96,146.67 L 486.00,140.00 L 486.00,138.36 L 485.98,135.36 L 485.97,133.90 L 485.91,131.24 L 485.87,129.96 L 485.77,127.63 L 485.70,126.50 L 485.53,124.48 L 485.44,123.50 L 485.19,121.77 L 485.05,120.93 L 484.71,119.45 L 484.35,118.04 L 483.30,115.91 L 482.71,114.95 L 481.13,113.60 L 480.26,113.01 L 478.05,112.26 L 476.86,111.95 L 473.91,111.65 L 468.55,111.50 M 848.28,111.00 L 846.94,111.02 L 846.30,111.03 L 845.22,111.09 L 844.19,111.15 L 842.67,111.46 L 841.97,111.66 L 840.78,112.31 L 838.89,113.81 L 838.29,114.34 L 837.35,115.39 L 836.92,115.93 L 836.26,117.08 L 835.96,117.69 L 835.50,119.07 L 834.99,121.56 L 834.75,123.12 L 834.65,126.50 L 834.65,128.19 L 834.98,131.54 L 835.19,133.17 L 835.90,136.05 L 836.10,136.72 L 836.55,137.90 L 837.32,139.37 L 837.69,139.94 L 838.80,140.92 L 839.40,141.39 L 840.90,142.18 L 841.69,142.54 L 843.47,143.11 L 844.39,143.37 L 846.36,143.71 L 848.36,143.98 L 852.48,143.79 L 853.48,143.67 L 855.39,143.23 L 856.32,142.98 L 858.00,142.25 L 858.68,141.91 L 859.86,141.15 L 860.42,140.75 L 861.38,139.83 L 861.84,139.35 L 862.60,138.23 L 862.96,137.64 L 863.53,136.27 L 863.80,135.55 L 864.21,133.87 L 864.40,132.99 L 864.67,130.97 L 864.78,129.91 L 864.92,127.50 L 865.00,123.37 L 865.00,113.24 L 860.56,112.12 L 859.95,111.96 L 858.28,111.68 L 857.39,111.55 L 855.35,111.33 L 849.07,111.00 M 978.83,111.00 L 976.72,111.20 L 975.71,111.34 L 973.91,111.83 L 973.05,112.11 L 971.54,112.90 L 970.82,113.33 L 969.58,114.45 L 968.99,115.04 L 968.00,116.49 L 967.54,117.26 L 966.79,119.07 L 966.45,120.02 L 965.92,122.20 L 965.35,125.90 L 964.73,131.86 L 968.11,132.42 L 970.40,132.79 L 974.67,133.19 L 976.74,133.33 L 980.48,133.27 L 982.28,133.18 L 985.39,132.65 L 986.86,132.33 L 989.22,131.36 L 990.09,130.92 L 991.43,129.88 L 992.04,129.32 L 992.91,127.97 L 993.29,127.25 L 993.74,125.49 L 994.00,122.29 L 994.00,121.42 L 993.75,119.81 L 993.59,119.03 L 993.02,117.60 L 992.70,116.91 L 991.84,115.67 L 991.37,115.08 L 990.22,114.05 L 989.62,113.56 L 988.21,112.74 L 987.47,112.37 L 985.81,111.79 L 984.96,111.53 L 983.07,111.20 L 980.00,111.00 M 364.86,88.00 L 364.34,88.71 L 364.06,89.17 L 363.30,90.69 L 362.90,91.53 L 361.96,93.73 L 361.47,94.89 L 360.40,97.62 L 359.85,99.04 L 358.70,102.16 L 358.12,103.75 L 356.94,107.13 L 353.57,117.52 L 353.07,119.17 L 352.12,122.31 L 351.66,123.83 L 350.85,126.50 L 350.48,127.74 L 349.90,129.63 L 349.78,130.03 L 349.59,130.65 L 349.41,131.25 L 349.28,131.65 L 349.53,132.21 L 349.67,132.33 L 350.19,132.51 L 350.49,132.60 L 351.42,132.73 L 351.94,132.79 L 353.37,132.87 L 354.15,132.91 L 356.17,132.95 L 357.27,132.97 L 359.98,132.99 L 364.93,133.00 L 367.14,133.00 L 371.17,132.95 L 373.09,132.92 L 376.28,132.82 L 377.01,132.79 L 378.25,132.72 L 378.83,132.69 L 379.73,132.62 L 380.14,132.58 L 380.67,132.50 L 380.89,132.46 L 381.00,132.37 L 381.00,132.09 L 380.84,131.14 L 380.73,130.60 L 380.38,129.18 L 380.18,128.42 L 379.66,126.62 L 379.38,125.67 L 378.73,123.55 L 378.04,121.37 L 376.36,116.36 L 375.49,113.81 L 373.61,108.51 L 372.66,105.87 L 370.77,100.86 L 370.31,99.65 L 369.43,97.39 L 368.99,96.29 L 368.18,94.30 L 367.79,93.35 L 367.08,91.71 L 366.74,90.94 L 366.15,89.72 L 365.88,89.17 L 365.45,88.45 L 365.00,88.00 M 690.20,65.06 L 691.35,65.10 L 693.23,65.29 L 694.10,65.41 L 695.47,65.80 L 696.10,66.03 L 697.05,66.70 L 697.48,67.07 L 698.08,68.07 L 698.34,68.61 L 698.67,70.02 L 698.80,70.77 L 698.94,72.65 L 699.00,76.06 L 699.00,84.00 L 689.25,84.00 L 686.83,83.91 L 685.69,83.85 L 683.86,83.64 L 683.01,83.51 L 681.70,83.15 L 681.10,82.95 L 680.22,82.44 L 679.73,82.10 L 679.04,81.37 L 678.74,80.97 L 678.37,79.83 L 678.21,79.17 L 678.07,77.22 L 678.04,76.66 L 678.01,75.33 L 678.00,72.94 L 678.00,65.00 L 687.75,65.00 Z" fill="rgba(88,36,99,1)"/>
<path d="M 112.32,242.04 L 110.20,241.54 L 106.04,240.36 L 103.98,239.73 L 99.95,238.29 L 97.95,237.54 L 94.06,235.84 L 92.12,234.97 L 88.37,233.03 L 86.51,232.04 L 82.91,229.87 L 81.12,228.76 L 77.68,226.36 L 75.98,225.14 L 72.70,222.53 L 71.09,221.20 L 67.99,218.38 L 66.46,216.94 L 63.55,213.92 L 62.12,212.39 L 59.40,209.18 L 58.06,207.55 L 55.55,204.15 L 54.32,202.43 L 52.02,198.86 L 50.89,197.05 L 48.81,193.32 L 47.80,191.43 L 45.95,187.53 L 45.06,185.56 L 43.45,181.51 L 41.31,175.28 L 41.00,174.27 L 40.48,172.50 L 40.24,171.64 L 39.84,170.05 L 39.47,168.47 L 39.02,165.22 L 38.93,164.35 L 38.80,162.39 L 38.74,161.36 L 38.67,158.98 L 38.64,157.72 L 38.60,154.76 L 38.58,149.50 L 38.58,147.83 L 38.59,144.85 L 38.61,143.43 L 38.65,140.90 L 38.68,139.68 L 38.76,137.53 L 38.81,136.49 L 38.93,134.65 L 39.07,132.87 L 39.48,129.95 L 40.37,126.00 L 41.28,122.74 L 43.56,116.41 L 44.78,113.29 L 47.66,107.28 L 49.17,104.32 L 52.60,98.68 L 54.39,95.91 L 58.34,90.68 L 60.38,88.12 L 64.81,83.34 L 67.08,81.01 L 71.96,76.74 L 74.45,74.67 L 79.73,70.95 L 88.07,66.04 L 89.86,65.12 L 93.27,63.48 L 94.96,62.70 L 98.21,61.32 L 101.44,60.02 L 107.75,58.11 L 110.93,57.26 L 117.56,56.17 L 119.26,55.94 L 122.83,55.60 L 128.50,55.27 L 130.47,55.19 L 134.05,55.12 L 135.79,55.10 L 139.02,55.16 L 142.20,55.26 L 148.10,55.92 L 149.58,56.13 L 152.60,56.69 L 154.14,57.00 L 157.37,57.77 L 159.02,58.19 L 162.60,59.18 L 168.49,60.96 L 170.28,61.52 L 173.33,62.50 L 174.77,62.97 L 177.19,63.81 L 178.33,64.22 L 180.23,64.98 L 181.12,65.36 L 182.58,66.09 L 183.27,66.45 L 184.40,67.19 L 184.93,67.57 L 185.82,68.38 L 188.04,71.30 L 188.28,71.68 L 188.66,72.48 L 188.84,72.91 L 189.13,74.03 L 189.26,74.66 L 189.47,76.40 L 189.57,77.38 L 189.71,80.03 L 189.74,80.76 L 189.80,82.46 L 189.82,83.34 L 189.86,85.37 L 189.88,86.42 L 189.91,88.81 L 189.93,90.06 L 189.95,92.85 L 189.96,94.30 L 189.97,97.54 L 189.98,99.21 L 189.99,102.93 L 189.99,104.85 L 189.99,109.08 L 190.00,116.04 L 190.00,118.17 L 189.99,122.14 L 189.99,124.07 L 189.98,127.67 L 189.98,129.42 L 189.96,132.66 L 189.96,134.24 L 189.94,137.15 L 189.92,138.57 L 189.90,141.17 L 189.88,142.43 L 189.85,144.75 L 189.81,147.00 L 189.70,150.72 L 189.65,152.47 L 189.51,155.32 L 189.43,156.66 L 189.24,158.81 L 189.14,159.81 L 188.90,161.43 L 188.47,163.46 L 188.08,164.96 L 187.11,167.87 L 186.60,169.31 L 185.39,172.09 L 184.13,174.84 L 180.94,179.91 L 179.24,182.38 L 175.25,186.83 L 173.17,188.97 L 168.49,192.73 L 166.07,194.52 L 160.79,197.51 L 158.08,198.90 L 152.30,201.04 L 149.35,202.01 L 143.17,203.24 L 133.54,203.99 L 130.37,203.98 L 124.19,203.19 L 121.13,202.68 L 115.24,200.91 L 112.34,199.92 L 106.84,197.27 L 104.15,195.83 L 99.14,192.36 L 96.71,190.53 L 92.30,186.32 L 90.17,184.13 L 86.46,179.25 L 84.70,176.74 L 81.78,171.27 L 81.10,169.87 L 79.92,166.98 L 78.41,162.50 L 78.12,161.48 L 77.63,159.16 L 77.41,157.95 L 77.08,155.34 L 76.78,152.67 L 76.63,146.92 L 76.63,144.05 L 77.07,138.55 L 77.21,137.23 L 77.62,134.78 L 78.39,131.50 L 79.15,128.94 L 81.13,124.10 L 82.20,121.73 L 84.76,117.27 L 86.10,115.10 L 89.20,111.07 L 90.81,109.12 L 94.41,105.56 L 96.26,103.84 L 100.31,100.78 L 102.39,99.32 L 106.86,96.80 L 109.14,95.61 L 113.99,93.66 L 121.64,91.44 L 124.31,90.84 L 129.48,90.26 L 132.08,90.08 L 137.40,90.34 L 138.75,90.45 L 141.55,90.85 L 142.96,91.08 L 145.92,91.70 L 147.42,92.04 L 150.58,92.88 L 155.60,94.40 L 157.12,94.90 L 159.99,95.80 L 161.38,96.23 L 163.77,96.94 L 164.88,97.27 L 166.52,97.72 L 166.87,97.81 L 167.39,97.93 L 167.85,98.00 L 168.04,98.00 L 168.35,97.56 L 168.49,97.27 L 168.71,96.26 L 168.80,95.68 L 168.93,94.10 L 169.00,91.11 L 169.00,89.97 L 168.93,88.03 L 168.88,87.12 L 168.64,85.58 L 168.50,84.86 L 168.03,83.64 L 167.75,83.07 L 166.96,82.09 L 166.52,81.62 L 165.35,80.80 L 164.70,80.40 L 163.05,79.66 L 162.17,79.29 L 159.98,78.54 L 156.00,77.32 L 154.97,77.02 L 153.14,76.52 L 152.25,76.28 L 150.60,75.88 L 148.98,75.51 L 145.88,75.04 L 144.29,74.84 L 140.60,74.64 L 139.60,74.60 L 137.35,74.56 L 133.50,74.54 L 132.14,74.53 L 129.76,74.55 L 128.62,74.57 L 126.60,74.62 L 124.66,74.68 L 121.54,74.96 L 120.04,75.13 L 117.34,75.67 L 113.04,76.85 L 110.45,77.66 L 105.54,79.56 L 103.13,80.56 L 98.57,82.84 L 96.33,84.02 L 92.11,86.67 L 90.05,88.04 L 86.19,91.05 L 84.31,92.60 L 80.81,95.96 L 79.12,97.69 L 76.00,101.41 L 74.49,103.31 L 71.75,107.37 L 68.09,113.85 L 67.29,115.44 L 65.94,118.30 L 65.30,119.69 L 64.23,122.25 L 63.22,124.76 L 61.94,129.51 L 61.67,130.72 L 61.27,133.24 L 61.09,134.54 L 60.85,137.34 L 60.74,138.80 L 60.63,142.02 L 60.56,147.50 L 60.56,149.14 L 60.57,151.92 L 60.58,153.23 L 60.63,155.45 L 60.66,156.50 L 60.76,158.31 L 60.82,159.18 L 61.01,160.73 L 61.21,162.23 L 61.94,165.08 L 62.15,165.83 L 62.68,167.46 L 63.66,170.26 L 64.21,171.81 L 65.31,174.66 L 65.87,176.05 L 67.02,178.62 L 68.18,181.14 L 70.83,185.64 L 72.24,187.85 L 75.65,192.16 L 76.57,193.25 L 78.60,195.50 L 82.00,199.03 L 84.35,201.39 L 89.09,205.41 L 91.49,207.32 L 96.52,210.57 L 99.09,212.11 L 104.68,214.73 L 114.00,218.16 L 115.56,218.64 L 118.29,219.34 L 119.65,219.65 L 122.44,220.05 L 123.90,220.22 L 127.37,220.39 L 128.31,220.42 L 130.41,220.45 L 134.00,220.46 L 135.47,220.45 L 137.96,220.43 L 139.15,220.41 L 141.18,220.34 L 143.12,220.26 L 146.27,219.87 L 147.82,219.62 L 151.08,218.75 L 151.96,218.49 L 153.94,217.85 L 157.41,216.68 L 159.10,216.10 L 162.22,214.94 L 163.75,214.35 L 166.56,213.15 L 169.32,211.94 L 174.14,209.28 L 176.47,207.88 L 180.74,204.67 L 187.00,198.99 L 188.32,197.66 L 190.75,194.89 L 191.93,193.49 L 194.10,190.59 L 195.16,189.12 L 197.06,186.07 L 197.98,184.53 L 199.63,181.35 L 200.42,179.74 L 201.79,176.42 L 202.45,174.74 L 203.56,171.29 L 204.09,169.54 L 204.94,165.95 L 205.91,160.40 L 205.95,160.16 L 206.01,159.41 L 206.04,158.99 L 206.10,157.90 L 206.14,157.31 L 206.20,155.88 L 206.23,155.13 L 206.28,153.40 L 206.31,152.50 L 206.37,150.48 L 206.39,149.44 L 206.44,147.17 L 206.49,144.83 L 206.58,139.44 L 206.63,136.65 L 206.70,130.49 L 206.73,127.33 L 206.79,120.55 L 206.81,117.11 L 206.84,109.89 L 206.86,98.75 L 206.85,44.00 L 196.63,44.00 L 195.41,44.00 L 193.37,43.99 L 192.41,43.98 L 190.80,43.93 L 190.04,43.90 L 188.76,43.79 L 188.15,43.73 L 187.09,43.54 L 186.06,43.32 L 184.23,42.57 L 183.75,42.34 L 182.72,41.78 L 180.96,40.75 L 179.88,40.11 L 178.16,38.91 L 177.36,38.32 L 176.05,37.06 L 175.43,36.40 L 174.34,34.87 L 172.75,32.07 L 171.99,30.58 L 170.81,27.55 L 170.56,26.85 L 170.22,25.65 L 170.00,24.32 L 170.00,22.00 L 199.54,22.00 L 229.07,22.00 L 228.75,95.75 L 228.74,98.33 L 228.72,103.23 L 228.71,105.64 L 228.69,110.22 L 228.68,112.47 L 228.66,116.74 L 228.66,118.84 L 228.64,122.81 L 228.63,124.76 L 228.60,128.45 L 228.59,130.26 L 228.57,133.69 L 228.54,137.04 L 228.48,143.00 L 228.45,145.87 L 228.36,150.92 L 228.31,153.34 L 228.19,157.59 L 228.12,159.63 L 227.95,163.18 L 227.87,164.88 L 227.65,167.84 L 227.53,169.25 L 227.26,171.73 L 227.11,172.91 L 226.77,175.00 L 226.40,177.01 L 225.43,180.34 L 224.90,181.96 L 223.55,185.13 L 223.18,185.95 L 222.37,187.71 L 221.01,190.62 L 219.69,193.47 L 217.00,198.48 L 215.63,200.91 L 212.64,205.33 L 211.08,207.50 L 207.55,211.66 L 201.38,218.00 L 199.90,219.41 L 196.89,222.02 L 195.37,223.29 L 192.24,225.66 L 190.66,226.82 L 187.39,228.96 L 185.73,230.00 L 182.27,231.94 L 180.51,232.88 L 176.84,234.62 L 174.97,235.47 L 171.05,237.05 L 169.05,237.81 L 164.85,239.23 L 158.19,241.20 L 156.79,241.58 L 153.47,242.21 L 151.74,242.51 L 147.89,242.98 L 145.92,243.19 L 141.74,243.49 L 139.63,243.62 L 135.30,243.74 L 133.14,243.78 L 128.85,243.72 L 126.73,243.67 L 122.68,243.44 L 120.71,243.30 L 117.08,242.88 L 115.34,242.64 M 147.19,179.06 L 149.08,178.34 L 152.76,176.19 L 154.57,175.01 L 157.92,172.10 L 159.54,170.56 L 162.33,167.09 L 165.66,161.50 L 166.32,160.08 L 167.21,157.76 L 167.61,156.59 L 168.09,153.84 L 168.20,153.06 L 168.36,151.22 L 168.43,150.23 L 168.55,147.85 L 168.60,146.58 L 168.69,143.51 L 168.83,137.94 L 169.22,120.38 L 155.86,115.94 L 154.35,115.44 L 151.77,114.60 L 150.54,114.21 L 148.41,113.56 L 147.39,113.26 L 145.59,112.78 L 144.72,112.55 L 143.12,112.22 L 141.56,111.91 L 138.49,111.63 L 137.69,111.58 L 135.95,111.53 L 133.00,111.50 L 131.95,111.50 L 130.15,111.52 L 129.29,111.53 L 127.80,111.59 L 126.37,111.66 L 124.15,111.97 L 123.08,112.17 L 121.12,112.82 L 117.81,114.29 L 116.89,114.74 L 115.06,115.85 L 114.14,116.44 L 112.33,117.79 L 110.54,119.19 L 107.22,122.52 L 105.63,124.24 L 102.97,127.95 L 102.36,128.88 L 101.32,130.76 L 100.07,133.54 L 99.49,135.09 L 98.68,138.24 L 98.33,139.82 L 97.96,143.00 L 97.83,144.59 L 97.91,147.76 L 98.00,149.35 L 98.51,152.47 L 98.82,154.03 L 99.76,157.07 L 100.28,158.58 L 101.64,161.49 L 102.37,162.93 L 104.13,165.67 L 107.23,169.56 L 108.52,170.97 L 111.35,173.49 L 112.80,174.69 L 115.89,176.75 L 117.46,177.72 L 120.72,179.27 L 125.75,180.97 L 127.13,181.32 L 130.51,181.61 L 132.28,181.68 L 136.11,181.46 L 138.04,181.29 L 141.88,180.59 L 143.76,180.19 Z" fill="rgba(254,254,254,1)"/>
</g>
</svg>